<?xml version="1.0" encoding="UTF-8" standalone="no"?>
<!-- Created with Inkscape (http://www.inkscape.org/) -->

<svg
   xmlns:dc="http://purl.org/dc/elements/1.1/"
   xmlns:cc="http://creativecommons.org/ns#"
   xmlns:rdf="http://www.w3.org/1999/02/22-rdf-syntax-ns#"
   xmlns:svg="http://www.w3.org/2000/svg"
   xmlns="http://www.w3.org/2000/svg"
   xmlns:xlink="http://www.w3.org/1999/xlink"
   version="1.1"
   width="612.75"
   height="779.67285"
   id="svg2">
  <defs
     id="defs4">
    <linearGradient
       id="linearGradient3956">
      <stop
         id="stop3958"
         style="stop-color:#000000;stop-opacity:1"
         offset="0" />
      <stop
         id="stop3960"
         style="stop-color:#fbfbfb;stop-opacity:1"
         offset="1" />
    </linearGradient>
    <linearGradient
       id="linearGradient3944">
      <stop
         id="stop3946"
         style="stop-color:#826f30;stop-opacity:1"
         offset="0" />
      <stop
         id="stop3952"
         style="stop-color:#c8b369;stop-opacity:1"
         offset="0.5" />
      <stop
         id="stop3948"
         style="stop-color:#826f30;stop-opacity:1"
         offset="1" />
    </linearGradient>
    <linearGradient
       id="linearGradient3930">
      <stop
         id="stop3932"
         style="stop-color:#333333;stop-opacity:1"
         offset="0" />
      <stop
         id="stop3938"
         style="stop-color:#bbbbbb;stop-opacity:1"
         offset="0.55602914" />
      <stop
         id="stop3934"
         style="stop-color:#333333;stop-opacity:1"
         offset="1" />
    </linearGradient>
    <linearGradient
       id="linearGradient3892">
      <stop
         id="stop3894"
         style="stop-color:#000000;stop-opacity:1"
         offset="0" />
      <stop
         id="stop3900"
         style="stop-color:#8e0e0e;stop-opacity:1"
         offset="0.45430514" />
      <stop
         id="stop3896"
         style="stop-color:#560000;stop-opacity:1"
         offset="1" />
    </linearGradient>
    <linearGradient
       id="linearGradient3872">
      <stop
         id="stop3874"
         style="stop-color:#ffffff;stop-opacity:0.69999999"
         offset="0" />
      <stop
         id="stop3876"
         style="stop-color:#ffffff;stop-opacity:0.2"
         offset="1" />
    </linearGradient>
    <linearGradient
       id="linearGradient3080">
      <stop
         id="stop3082"
         style="stop-color:#ffdd55;stop-opacity:1"
         offset="0" />
      <stop
         id="stop3088"
         style="stop-color:#ffcc01;stop-opacity:1"
         offset="0.5" />
      <stop
         id="stop3084"
         style="stop-color:#dcb000;stop-opacity:1"
         offset="1" />
    </linearGradient>
    <radialGradient
       cx="488.95001"
       cy="453.73486"
       r="66.731827"
       fx="488.95001"
       fy="453.73486"
       id="radialGradient3086"
       xlink:href="#linearGradient3080"
       gradientUnits="userSpaceOnUse"
       gradientTransform="matrix(1,0,0,4.4754458,0,-1577.7375)" />
    <radialGradient
       cx="625.53888"
       cy="456.4595"
       r="100.37647"
       fx="625.53888"
       fy="456.4595"
       id="radialGradient3090"
       xlink:href="#linearGradient3080"
       gradientUnits="userSpaceOnUse"
       gradientTransform="matrix(1,0,0,2.9452519,0,-887.92871)" />
    <radialGradient
       cx="677.21368"
       cy="456.00687"
       r="109.5214"
       fx="677.21368"
       fy="456.00687"
       id="radialGradient3092"
       xlink:href="#linearGradient3080"
       gradientUnits="userSpaceOnUse"
       gradientTransform="matrix(1,0,0,2.6951934,0,-773.01981)" />
    <radialGradient
       cx="575.98383"
       cy="454.55423"
       r="95.542427"
       fx="575.98383"
       fy="454.55423"
       id="radialGradient3094"
       xlink:href="#linearGradient3080"
       gradientUnits="userSpaceOnUse"
       gradientTransform="matrix(1,0,0,3.1247325,0,-965.09989)" />
    <radialGradient
       cx="287.70935"
       cy="454.47955"
       r="73.191673"
       fx="287.70935"
       fy="454.47955"
       id="radialGradient3096"
       xlink:href="#linearGradient3080"
       gradientUnits="userSpaceOnUse"
       gradientTransform="matrix(1,0,0,4.0998902,0,-1408.0514)" />
    <radialGradient
       cx="391.5596"
       cy="453.37289"
       r="52.430984"
       fx="391.5596"
       fy="453.37289"
       id="radialGradient3098"
       xlink:href="#linearGradient3080"
       gradientUnits="userSpaceOnUse"
       gradientTransform="matrix(1,0,0,5.7198327,0,-2139.8441)" />
    <radialGradient
       cx="204.52316"
       cy="457.79324"
       r="100.12256"
       fx="204.52316"
       fy="457.79324"
       id="radialGradient3102"
       xlink:href="#linearGradient3080"
       gradientUnits="userSpaceOnUse"
       gradientTransform="matrix(1,0,0,2.9740276,0,-904.3859)" />
    <radialGradient
       cx="233.1701"
       cy="436.22925"
       r="63.875111"
       fx="233.1701"
       fy="436.22925"
       id="radialGradient3878"
       xlink:href="#linearGradient3872"
       gradientUnits="userSpaceOnUse"
       gradientTransform="matrix(1,0,0,4.6368475,0,-1662.2596)" />
    <radialGradient
       cx="83.713608"
       cy="461.87775"
       r="118.48805"
       fx="83.713608"
       fy="461.87775"
       id="radialGradient3880"
       xlink:href="#linearGradient3080"
       gradientUnits="userSpaceOnUse"
       gradientTransform="matrix(1,0,0,2.4931614,0,-689.65805)" />
    <radialGradient
       cx="108.23003"
       cy="457.99075"
       r="114.76982"
       fx="108.23003"
       fy="457.99075"
       id="radialGradient3882"
       xlink:href="#linearGradient3080"
       gradientUnits="userSpaceOnUse"
       gradientTransform="matrix(1,0,0,2.596643,0,-731.88638)" />
    <radialGradient
       cx="165.91713"
       cy="426.07919"
       r="94.495079"
       fx="165.91713"
       fy="426.07919"
       id="radialGradient3884"
       xlink:href="#linearGradient3872"
       gradientUnits="userSpaceOnUse"
       gradientTransform="matrix(1,0,0,3.097497,0,-967.03314)" />
    <radialGradient
       cx="97.630249"
       cy="421.53104"
       r="113.70954"
       fx="97.630249"
       fy="421.53104"
       id="radialGradient3886"
       xlink:href="#linearGradient3872"
       gradientUnits="userSpaceOnUse"
       gradientTransform="matrix(1,0,0,2.5299402,0,-714.63505)" />
    <radialGradient
       cx="340.46014"
       cy="213.07822"
       r="19.054482"
       fx="340.46014"
       fy="213.07822"
       id="radialGradient3888"
       xlink:href="#linearGradient3872"
       gradientUnits="userSpaceOnUse"
       gradientTransform="matrix(1,0,0,3.0828433,0,-443.80852)" />
    <radialGradient
       cx="399.81027"
       cy="156.01944"
       r="12.653717"
       fx="399.81027"
       fy="156.01944"
       id="radialGradient3890"
       xlink:href="#linearGradient3872"
       gradientUnits="userSpaceOnUse"
       gradientTransform="matrix(1,0,0,0.6507225,0,57.281497)" />
    <linearGradient
       x1="298.21329"
       y1="783.27466"
       x2="457.31949"
       y2="783.27466"
       id="linearGradient3898"
       xlink:href="#linearGradient3892"
       gradientUnits="userSpaceOnUse" />
    <linearGradient
       x1="356.09375"
       y1="874.56219"
       x2="396.20728"
       y2="874.56219"
       id="linearGradient3936"
       xlink:href="#linearGradient3930"
       gradientUnits="userSpaceOnUse" />
    <linearGradient
       x1="379.14789"
       y1="850.81519"
       x2="388.35797"
       y2="850.81519"
       id="linearGradient3950"
       xlink:href="#linearGradient3944"
       gradientUnits="userSpaceOnUse"
       gradientTransform="matrix(1,0,0,0.84968615,0,126.48183)" />
    <linearGradient
       x1="364.04022"
       y1="863.34967"
       x2="328.31876"
       y2="803.96503"
       id="linearGradient3962"
       xlink:href="#linearGradient3956"
       gradientUnits="userSpaceOnUse" />
    <linearGradient
       x1="391.10669"
       y1="856.55438"
       x2="416.91888"
       y2="804.13464"
       id="linearGradient3964"
       xlink:href="#linearGradient3956"
       gradientUnits="userSpaceOnUse" />
    <linearGradient
       x1="383.49121"
       y1="854.4397"
       x2="390.8237"
       y2="803.85278"
       id="linearGradient3966"
       xlink:href="#linearGradient3956"
       gradientUnits="userSpaceOnUse" />
    <linearGradient
       x1="374.30408"
       y1="854.22662"
       x2="365.3287"
       y2="803.63977"
       id="linearGradient3968"
       xlink:href="#linearGradient3956"
       gradientUnits="userSpaceOnUse" />
    <linearGradient
       x1="366.90863"
       y1="857.80762"
       x2="340.3652"
       y2="804.10486"
       id="linearGradient3970"
       xlink:href="#linearGradient3956"
       gradientUnits="userSpaceOnUse" />
    <linearGradient
       x1="387.05609"
       y1="855.75708"
       x2="404.1485"
       y2="804.80359"
       id="linearGradient3972"
       xlink:href="#linearGradient3956"
       gradientUnits="userSpaceOnUse" />
    <linearGradient
       x1="370.14813"
       y1="855.14307"
       x2="352.78281"
       y2="804.00629"
       id="linearGradient3974"
       xlink:href="#linearGradient3956"
       gradientUnits="userSpaceOnUse" />
    <linearGradient
       x1="379.07404"
       y1="854.98956"
       x2="378.60773"
       y2="804.76923"
       id="linearGradient3976"
       xlink:href="#linearGradient3956"
       gradientUnits="userSpaceOnUse" />
    <linearGradient
       x1="394.41956"
       y1="861.4527"
       x2="430.24829"
       y2="805.00067"
       id="linearGradient3978"
       xlink:href="#linearGradient3956"
       gradientUnits="userSpaceOnUse" />
    <linearGradient
       x1="394.41956"
       y1="861.4527"
       x2="430.24829"
       y2="805.00067"
       id="linearGradient4029"
       xlink:href="#linearGradient3956"
       gradientUnits="userSpaceOnUse" />
    <linearGradient
       x1="379.07404"
       y1="854.98956"
       x2="378.60773"
       y2="804.76923"
       id="linearGradient4031"
       xlink:href="#linearGradient3956"
       gradientUnits="userSpaceOnUse" />
    <linearGradient
       x1="370.14813"
       y1="855.14307"
       x2="352.78281"
       y2="804.00629"
       id="linearGradient4033"
       xlink:href="#linearGradient3956"
       gradientUnits="userSpaceOnUse" />
    <linearGradient
       x1="387.05609"
       y1="855.75708"
       x2="404.1485"
       y2="804.80359"
       id="linearGradient4035"
       xlink:href="#linearGradient3956"
       gradientUnits="userSpaceOnUse" />
    <linearGradient
       x1="366.90863"
       y1="857.80762"
       x2="340.3652"
       y2="804.10486"
       id="linearGradient4037"
       xlink:href="#linearGradient3956"
       gradientUnits="userSpaceOnUse" />
    <linearGradient
       x1="374.30408"
       y1="854.22662"
       x2="365.3287"
       y2="803.63977"
       id="linearGradient4039"
       xlink:href="#linearGradient3956"
       gradientUnits="userSpaceOnUse" />
    <linearGradient
       x1="383.49121"
       y1="854.4397"
       x2="390.8237"
       y2="803.85278"
       id="linearGradient4041"
       xlink:href="#linearGradient3956"
       gradientUnits="userSpaceOnUse" />
    <linearGradient
       x1="391.10669"
       y1="856.55438"
       x2="416.91888"
       y2="804.13464"
       id="linearGradient4043"
       xlink:href="#linearGradient3956"
       gradientUnits="userSpaceOnUse" />
    <linearGradient
       x1="364.04022"
       y1="863.34967"
       x2="328.31876"
       y2="803.96503"
       id="linearGradient4045"
       xlink:href="#linearGradient3956"
       gradientUnits="userSpaceOnUse" />
    <linearGradient
       x1="356.09375"
       y1="874.56219"
       x2="396.20728"
       y2="874.56219"
       id="linearGradient4049"
       xlink:href="#linearGradient3930"
       gradientUnits="userSpaceOnUse" />
    <radialGradient
       cx="391.5596"
       cy="453.37289"
       r="52.430984"
       fx="391.5596"
       fy="453.37289"
       id="radialGradient4051"
       xlink:href="#linearGradient3080"
       gradientUnits="userSpaceOnUse"
       gradientTransform="matrix(1,0,0,5.7198327,0,-2139.8441)" />
    <radialGradient
       cx="287.70935"
       cy="454.47955"
       r="73.191673"
       fx="287.70935"
       fy="454.47955"
       id="radialGradient4053"
       xlink:href="#linearGradient3080"
       gradientUnits="userSpaceOnUse"
       gradientTransform="matrix(1,0,0,4.0998902,0,-1408.0514)" />
    <radialGradient
       cx="488.95001"
       cy="453.73486"
       r="66.731827"
       fx="488.95001"
       fy="453.73486"
       id="radialGradient4055"
       xlink:href="#linearGradient3080"
       gradientUnits="userSpaceOnUse"
       gradientTransform="matrix(1,0,0,4.4754458,0,-1577.7375)" />
    <radialGradient
       cx="575.98383"
       cy="454.55423"
       r="95.542427"
       fx="575.98383"
       fy="454.55423"
       id="radialGradient4057"
       xlink:href="#linearGradient3080"
       gradientUnits="userSpaceOnUse"
       gradientTransform="matrix(1,0,0,3.1247325,0,-965.09989)" />
    <radialGradient
       cx="204.52316"
       cy="457.79324"
       r="100.12256"
       fx="204.52316"
       fy="457.79324"
       id="radialGradient4059"
       xlink:href="#linearGradient3080"
       gradientUnits="userSpaceOnUse"
       gradientTransform="matrix(1,0,0,2.9740276,0,-904.3859)" />
    <radialGradient
       cx="625.53888"
       cy="456.4595"
       r="100.37647"
       fx="625.53888"
       fy="456.4595"
       id="radialGradient4061"
       xlink:href="#linearGradient3080"
       gradientUnits="userSpaceOnUse"
       gradientTransform="matrix(1,0,0,2.9452519,0,-887.92871)" />
    <radialGradient
       cx="108.23003"
       cy="457.99075"
       r="114.76982"
       fx="108.23003"
       fy="457.99075"
       id="radialGradient4063"
       xlink:href="#linearGradient3080"
       gradientUnits="userSpaceOnUse"
       gradientTransform="matrix(1,0,0,2.596643,0,-731.88638)" />
    <radialGradient
       cx="677.21368"
       cy="456.00687"
       r="109.5214"
       fx="677.21368"
       fy="456.00687"
       id="radialGradient4065"
       xlink:href="#linearGradient3080"
       gradientUnits="userSpaceOnUse"
       gradientTransform="matrix(1,0,0,2.6951934,0,-773.01981)" />
    <radialGradient
       cx="83.713608"
       cy="461.87775"
       r="118.48805"
       fx="83.713608"
       fy="461.87775"
       id="radialGradient4067"
       xlink:href="#linearGradient3080"
       gradientUnits="userSpaceOnUse"
       gradientTransform="matrix(1,0,0,2.4931614,0,-689.65805)" />
    <radialGradient
       cx="233.1701"
       cy="436.22925"
       r="63.875111"
       fx="233.1701"
       fy="436.22925"
       id="radialGradient4071"
       xlink:href="#linearGradient3872"
       gradientUnits="userSpaceOnUse"
       gradientTransform="matrix(1,0,0,4.6368475,0,-1662.2596)" />
    <radialGradient
       cx="165.91713"
       cy="426.07919"
       r="94.495079"
       fx="165.91713"
       fy="426.07919"
       id="radialGradient4073"
       xlink:href="#linearGradient3872"
       gradientUnits="userSpaceOnUse"
       gradientTransform="matrix(1,0,0,3.097497,0,-967.03314)" />
    <radialGradient
       cx="97.630249"
       cy="421.53104"
       r="113.70954"
       fx="97.630249"
       fy="421.53104"
       id="radialGradient4075"
       xlink:href="#linearGradient3872"
       gradientUnits="userSpaceOnUse"
       gradientTransform="matrix(1,0,0,2.5299402,0,-714.63505)" />
    <radialGradient
       cx="340.46014"
       cy="213.07822"
       r="19.054482"
       fx="340.46014"
       fy="213.07822"
       id="radialGradient4077"
       xlink:href="#linearGradient3872"
       gradientUnits="userSpaceOnUse"
       gradientTransform="matrix(1,0,0,3.0828433,0,-443.80852)" />
    <radialGradient
       cx="399.81027"
       cy="156.01944"
       r="12.653717"
       fx="399.81027"
       fy="156.01944"
       id="radialGradient4079"
       xlink:href="#linearGradient3872"
       gradientUnits="userSpaceOnUse"
       gradientTransform="matrix(1,0,0,0.6507225,0,57.281497)" />
  </defs>
  <metadata
     id="metadata7">
    <rdf:RDF>
      <cc:Work
         rdf:about="">
        <dc:format>image/svg+xml</dc:format>
        <dc:type
           rdf:resource="http://purl.org/dc/dcmitype/StillImage" />
        <dc:title></dc:title>
      </cc:Work>
    </rdf:RDF>
  </metadata>
  <g
     transform="translate(-64.9375,-153.48338)"
     id="layer1">
    <g
       id="g3980">
      <path
         d="m 281.42844,747.67101 190.65323,0 -18.20561,18.20561 -151.58702,0 z"
         id="path3954"
         style="fill:#000000;fill-opacity:1;stroke:none" />
      <path
         d="m 393.27,863.55574 37.76129,-59.55845"
         id="path3040"
         style="fill:none;stroke:url(#linearGradient4029);stroke-width:1px;stroke-linecap:butt;stroke-linejoin:miter;stroke-opacity:1" />
      <path
         d="m 378.84089,855.57368 0,-50.65539"
         id="path3042"
         style="fill:none;stroke:url(#linearGradient4031);stroke-width:1px;stroke-linecap:butt;stroke-linejoin:miter;stroke-opacity:1" />
      <path
         d="m 370.24482,856.80169 -17.19213,-52.8044"
         id="path3044"
         style="fill:none;stroke:url(#linearGradient4033);stroke-width:1px;stroke-linecap:butt;stroke-linejoin:miter;stroke-opacity:1" />
      <path
         d="M 386.82295,856.80169 404.01508,805.2253"
         id="path3046"
         style="fill:none;stroke:url(#linearGradient4035);stroke-width:1px;stroke-linecap:butt;stroke-linejoin:miter;stroke-opacity:1" />
      <path
         d="M 367.1748,859.25771 340.4656,804.30429"
         id="path3048"
         style="fill:none;stroke:url(#linearGradient4037);stroke-width:1px;stroke-linecap:butt;stroke-linejoin:miter;stroke-opacity:1" />
      <path
         d="m 374.54286,856.18769 -8.90307,-51.5764"
         id="path3050"
         style="fill:none;stroke:url(#linearGradient4039);stroke-width:1px;stroke-linecap:butt;stroke-linejoin:miter;stroke-opacity:1" />
      <path
         d="m 382.52492,855.88068 7.98206,-51.26939"
         id="path3052"
         style="fill:none;stroke:url(#linearGradient4041);stroke-width:1px;stroke-linecap:butt;stroke-linejoin:miter;stroke-opacity:1" />
      <path
         d="m 390.50698,858.0297 26.0952,-52.8044"
         id="path3054"
         style="fill:none;stroke:url(#linearGradient4043);stroke-width:1px;stroke-linecap:butt;stroke-linejoin:miter;stroke-opacity:1" />
      <path
         d="M 365.02578,864.78375 328.79951,803.99729"
         id="path3038"
         style="fill:none;stroke:url(#linearGradient4045);stroke-width:1px;stroke-linecap:butt;stroke-linejoin:miter;stroke-opacity:1" />
      <path
         d="m 381.875,853.71875 c -4.61937,-0.3712 -9.45468,0.081 -13.0625,1.34375 -1.73449,0.60707 -2.69897,1.87048 -3.5625,3.28125 -0.86353,1.41077 -1.58457,3.11538 -2.28125,5.03125 -1.39336,3.83174 -2.58292,8.54155 -3.59375,13.1875 -2.02167,9.29191 -3.28125,18.28125 -3.28125,18.28125 l 4.96875,0.6875 c 0,0 1.21814,-8.85477 3.1875,-17.90625 0.98468,-4.52574 2.15171,-9.11253 3.40625,-12.5625 0.62727,-1.72499 1.29466,-3.14564 1.875,-4.09375 0.58034,-0.94811 1.13698,-1.25732 0.9375,-1.1875 2.53223,-0.88628 7.02331,-1.38205 11,-1.0625 3.97669,0.31955 7.3254,1.73681 7.9375,2.59375 0.0459,0.0642 0.82582,2.45246 1.15625,5.34375 0.33043,2.89129 0.51797,6.4897 0.59375,9.9375 0.15155,6.89561 -0.0625,13.28125 -0.0625,13.28125 l 4.96875,0.1875 c 0,0 0.2492,-6.52075 0.0937,-13.59375 -0.0777,-3.5365 -0.26468,-7.22218 -0.625,-10.375 -0.36032,-3.15282 -0.57336,-5.6027 -2.0625,-7.6875 -2.45793,-3.44109 -6.97438,-4.3163 -11.59375,-4.6875 z"
         id="path3036"
         style="font-size:medium;font-style:normal;font-variant:normal;font-weight:normal;font-stretch:normal;text-indent:0;text-align:start;text-decoration:none;line-height:normal;letter-spacing:normal;word-spacing:normal;text-transform:none;direction:ltr;block-progression:tb;writing-mode:lr-tb;text-anchor:start;baseline-shift:baseline;color:#000000;fill:url(#linearGradient4049);fill-opacity:1;stroke:none;stroke-width:5;marker:none;visibility:visible;display:inline;overflow:visible;enable-background:accumulate;font-family:Sans;-inkscape-font-specification:Sans" />
      <path
         d="m 347.69286,157.43663 c -6.24608,2.95677 -31.95248,7.06133 -31.95248,225.01587 0,85.26931 25.21486,248.94502 48.10409,370.1516 5.025,4.61272 30.39307,3.52831 32.83464,-0.12893 10.15351,-138.67916 22.92324,-245.78148 22.92324,-374.17715 0,-185.91292 -34.27445,-221.45413 -34.27445,-221.45413 -11.69491,-4.84546 -30.48194,-2.7934 -37.63504,0.59274 z"
         id="path3009"
         style="fill:url(#radialGradient4051);stroke:#000000;stroke-width:0;stroke-linecap:butt;stroke-linejoin:miter;stroke-miterlimit:4;stroke-opacity:1;stroke-dasharray:none" />
      <path
         d="m 350.2599,156.15419 c -7.21493,-0.0458 -132.12637,-34.80375 -132.12637,232.24015 0,113.07644 110.10576,345.94283 118.71543,363.97884 3.11852,3.87805 22.99281,3.17348 27.17195,0.27792 -11.42569,-124.24836 -46.22678,-246.15593 -48.28053,-370.1986 0,-244.56179 34.51952,-226.29831 34.51952,-226.29831 z"
         id="path3011"
         style="fill:url(#radialGradient4053);stroke:#000000;stroke-width:0;stroke-linecap:butt;stroke-linejoin:miter;stroke-miterlimit:4;stroke-opacity:1;stroke-dasharray:none" />
      <path
         d="m 419.60235,378.29802 c 0,-177.83665 -34.27445,-221.45413 -34.27445,-221.45413 0,0 132.46365,-34.52728 132.46365,224.84297 0,106.57241 -31.9002,261.78125 -92.14571,370.96237 -5.72038,3.80232 -22.61647,3.06169 -28.89296,0.01 9.06592,-135.2395 22.84947,-245.61298 22.84947,-374.36086 z"
         id="path3013"
         style="fill:url(#radialGradient4055);stroke:#000000;stroke-width:0;stroke-linecap:butt;stroke-linejoin:miter;stroke-miterlimit:4;stroke-opacity:1;stroke-dasharray:none" />
      <path
         d="m 425.99423,752.13946 c 0,0 91.79732,-229.52269 91.79732,-370.4526 0,-228.38195 -109.55349,-225.20925 -109.55349,-225.20925 0,0 190.08486,-18.27233 190.08486,230.24246 0,144.70481 -149.76307,365.93101 -149.76307,365.93101 -7.35322,3.64703 -14.63296,2.69673 -22.56562,-0.51162 z"
         id="path3015"
         style="fill:url(#radialGradient4057);stroke:#000000;stroke-width:0;stroke-linecap:butt;stroke-linejoin:miter;stroke-miterlimit:4;stroke-opacity:1;stroke-dasharray:none" />
      <path
         d="M 310.52527,752.49281 C 294.64436,731.37942 138.13642,520.12843 138.13642,394.91593 c 0,-235.76666 162.73652,-234.04037 162.73652,-234.04037 0,0 -82.73941,16.38911 -82.73941,227.51878 0,111.49876 109.35796,344.61089 118.62405,363.80329 -2.71275,3.75321 -23.03421,3.94224 -26.23231,0.29518 z"
         id="path3017"
         style="fill:url(#radialGradient4059);stroke:#000000;stroke-width:0;stroke-linecap:butt;stroke-linejoin:miter;stroke-miterlimit:4;stroke-opacity:1;stroke-dasharray:none" />
      <path
         d="m 466.70727,752.54196 c 0,0 182.88889,-205.46173 182.88889,-360.97587 0,-223.86882 -190.45893,-230.24059 -190.45893,-230.24059 0,0 139.1259,17.58239 139.1259,223.7073 0,147.81739 -149.56069,367.19049 -149.56069,367.19049 6.98571,2.79288 12.86274,4.41974 18.00483,0.31867 z"
         id="path3019"
         style="fill:url(#radialGradient4061);stroke:#000000;stroke-width:0;stroke-linecap:butt;stroke-linejoin:miter;stroke-miterlimit:4;stroke-opacity:1;stroke-dasharray:none" />
      <path
         d="M 310.50977,752.45491 C 294.54283,731.0165 138.13642,517.87545 138.13642,394.91593 c 0,-236.55118 162.73652,-234.04037 162.73652,-234.04037 0,0 -217.591458,7.56328 -217.591458,243.19744 0,136.91491 188.322908,322.96659 214.999898,348.63501 4.76054,3.58453 10.33781,3.85094 12.22839,-0.2531 z"
         id="path3021"
         style="fill:url(#radialGradient4063);stroke:#000000;stroke-width:0;stroke-linecap:butt;stroke-linejoin:miter;stroke-miterlimit:4;stroke-opacity:1;stroke-dasharray:none" />
      <path
         d="m 468.41842,750.68821 c 0,0 208.76161,-181.28417 208.76161,-353.69504 0,-214.99427 -218.0428,-235.66767 -218.0428,-235.66767 0,0 190.45893,7.63486 190.45893,230.24059 0,153.94969 -181.17774,359.12212 -181.17774,359.12212 z"
         id="path3023"
         style="fill:url(#radialGradient4065);stroke:#000000;stroke-width:0;stroke-linecap:butt;stroke-linejoin:miter;stroke-miterlimit:4;stroke-opacity:1;stroke-dasharray:none" />
      <path
         d="M 286.88859,752.46921 C 256.15103,725.53578 65.433039,552.61148 65.433039,408.41799 c 0,-217.35489 199.460161,-241.45007 199.460161,-241.45007 0,0 -181.611718,25.16037 -181.611718,237.10508 0,135.8494 187.878008,322.39687 214.904638,348.5293 -3.57724,3.41466 -8.48916,2.40072 -11.29753,-0.13309 z"
         id="path3025"
         style="fill:url(#radialGradient4067);stroke:#000000;stroke-width:0;stroke-linecap:butt;stroke-linejoin:miter;stroke-miterlimit:4;stroke-opacity:1;stroke-dasharray:none" />
      <path
         d="m 150.86072,606.45191 c 5.16127,0.0718 11.10838,-0.82775 14.85089,-6.90546 11.86764,5.44538 26.28061,1.98211 41.92231,-5.78171 17.86387,8.08127 38.18074,3.98001 60.2632,-2.55275 18.71224,6.71427 42.93351,7.34535 69.21318,-3.44276 25.95585,8.51292 50.60107,7.32721 74.19202,-1.66008 24.91684,9.99099 48.29357,9.45782 70.37225,0.0547 21.94364,9.73065 41.90899,10.66888 59.59517,1.47745 15.43005,9.06872 28.37475,10.40524 39.54962,6.23563 5.81896,4.1183 11.82782,7.57194 18.58502,8.4064 -10.37395,15.03856 -20.44046,28.46459 -32.23264,43.0304 -4.25626,-1.01998 -8.61548,-3.70007 -12.40676,-8.43995 -10.54533,7.16111 -23.00109,4.01154 -35.90635,-3.93088 -13.70422,8.78017 -30.69493,7.95367 -50.54886,-1.24224 -19.10869,8.70673 -38.95528,9.85006 -59.95429,-0.81894 -20.34105,11.095 -41.80099,11.89613 -64.50741,1.2297 -20.70672,8.97986 -40.15136,11.01834 -58.02024,4.39008 -21.20553,7.05906 -39.42771,8.50242 -52.60279,0.44534 -12.88134,6.99238 -24.40774,9.24246 -34.45058,6.30008 -3.1493,4.36138 -7.11656,7.08684 -12.15749,7.66496 -12.13052,-14.18469 -24.09779,-28.85911 -35.75625,-44.45997 z"
         id="path3060"
         style="opacity:0.8;fill:#000000;fill-opacity:1;stroke:none" />
      <path
         d="m 77.213144,271.19605 c 0,0 301.319586,-41.43144 440.679896,0 139.36031,41.43144 9.41624,5.64974 9.41624,5.64974 l 0,0"
         transform="translate(64.9375,153.48338)"
         id="path4273"
         style="fill:none;stroke:#000000;stroke-width:0px;stroke-linecap:butt;stroke-linejoin:miter;stroke-opacity:1" />
      <text
         id="text4275"
         xml:space="preserve"
         style="font-size:88px;font-style:normal;font-variant:normal;font-weight:bold;font-stretch:normal;text-indent:20px;text-align:start;line-height:125%;letter-spacing:-4px;word-spacing:0px;writing-mode:lr-tb;text-anchor:start;fill:#000000;fill-opacity:0.85;stroke:none;font-family:Helvetica;-inkscape-font-specification:Sans Bold"><textPath
           xlink:href="#path4273"
           id="textPath4461"> hello fuse8!</textPath></text>
      <path
         d="m 327.8785,804.30429 103.15279,0 c 6.48363,-14.01977 15.21209,-28.03955 25.7882,-42.05932 l -158.10621,0 c 11.2585,13.09772 21.94949,26.53594 29.16522,42.05932 z"
         id="path3027"
         style="fill:#302600;fill-opacity:1;stroke:#000000;stroke-linecap:butt;stroke-linejoin:miter;stroke-opacity:1" />
      <path
         d="m 350.90368,930.48225 30.70023,1.53501 1.53501,-42.05932 -7.36805,0 -2.14902,9.21007 -15.04311,0.30701 -0.92101,-10.13108 -6.75405,0 z"
         id="path3029"
         style="fill:#d45500;stroke:#000000;stroke-width:1px;stroke-linecap:butt;stroke-linejoin:miter;stroke-opacity:1" />
      <path
         d="m 381.60391,932.01726 23.02518,0.61401 -1.53501,-42.67333 -19.95516,0 z"
         id="path3031"
         style="fill:#552200;stroke:#000000;stroke-width:1px;stroke-linecap:butt;stroke-linejoin:miter;stroke-opacity:1" />
      <path
         d="m 346.47483,754.36645 c 0,0 -87.85853,-221.3141 -87.85853,-369.83672 0,-148.52261 43.96845,-223.6483 43.96845,-223.6483 0,0 -80.32014,20.07884 -80.32014,226.76416 0,98.66887 115.448,365.03564 115.448,365.03564 3.12568,0.92433 5.82571,1.65948 8.76222,1.68522 z"
         id="path3068"
         style="fill:url(#radialGradient4071);stroke:none" />
      <path
         d="m 260.34711,168.84327 c 0,0 -76.51143,79.62729 -76.51143,221.91818 0,176.60405 126.09936,338.99767 144.42818,361.66914 1.43646,1.77681 1.43895,1.72655 1.43895,1.72655 -5.93134,0.33472 -12.64602,0.21776 -18.93195,-1.4138 -14.28621,-19.98849 -169.51858,-239.8712 -169.51858,-356.78879 0,-197.33774 119.09483,-227.11128 119.09483,-227.11128 z"
         id="path3070"
         style="fill:url(#radialGradient4073);stroke:none" />
      <path
         d="M 309.73126,752.08604 C 288.41031,730.26973 111.1323,544.50033 111.1323,399.07041 c 0,-176.55995 110.09369,-219.14875 110.09369,-219.14875 0,0 -136.059177,63.70627 -136.059177,220.18737 0,115.77027 186.631967,323.32614 213.128157,352.20955 5.45714,2.8003 8.43917,2.87894 11.43629,-0.23254 z"
         id="path3072"
         style="fill:url(#radialGradient4075);stroke:none" />
      <path
         d="m 346.89897,271.32019 c -2.60539,-54.02001 0.25811,-95.43621 22.50185,-116.32405 -38.88963,-3.5605 -48.60716,52.86601 -22.50185,116.32405 z"
         id="path3074"
         style="fill:url(#radialGradient4077);stroke:none" />
      <path
         d="m 410.86743,171.73402 c -8.2455,-4.06392 -15.88713,-9.33557 -23.21089,-15.24297 8.41274,0.30693 29.3019,-4.08276 23.21089,15.24297 z"
         id="path3076"
         style="fill:url(#radialGradient4079);stroke:none" />
      <path
         d="m 466.37314,753.30142 -9.96869,8.89099"
         id="path3904"
         style="fill:none;stroke:#000000;stroke-width:1px;stroke-linecap:butt;stroke-linejoin:miter;stroke-opacity:1" />
      <path
         d="m 448.86057,752.22372 -6.19675,9.69927"
         id="path3906"
         style="fill:none;stroke:#000000;stroke-width:1px;stroke-linecap:butt;stroke-linejoin:miter;stroke-opacity:1" />
      <path
         d="m 425.95952,752.22372 -3.77194,9.42985"
         id="path3908"
         style="fill:none;stroke:#000000;stroke-width:1px;stroke-linecap:butt;stroke-linejoin:miter;stroke-opacity:1" />
      <path
         d="m 396.32287,752.49315 -0.80827,9.42984"
         id="path3910"
         style="fill:none;stroke:#000000;stroke-width:1px;stroke-linecap:butt;stroke-linejoin:miter;stroke-opacity:1" />
      <path
         d="m 363.72255,752.76257 0.53885,9.16042"
         id="path3912"
         style="fill:none;stroke:#000000;stroke-width:1px;stroke-linecap:butt;stroke-linejoin:miter;stroke-opacity:1" />
      <path
         d="m 336.51072,752.49315 3.23309,9.42984"
         id="path3914"
         style="fill:none;stroke:#000000;stroke-width:1px;stroke-linecap:butt;stroke-linejoin:miter;stroke-opacity:1" />
      <path
         d="m 310.10715,752.49315 6.46618,9.16042"
         id="path3916"
         style="fill:none;stroke:#000000;stroke-width:1px;stroke-linecap:butt;stroke-linejoin:miter;stroke-opacity:1" />
      <path
         d="m 297.1748,752.22372 10.23811,9.96869"
         id="path3918"
         style="fill:none;stroke:#000000;stroke-width:1px;stroke-linecap:butt;stroke-linejoin:miter;stroke-opacity:1" />
      <path
         d="m 288.55322,753.57084 10.50754,8.891"
         id="path3920"
         style="fill:none;stroke:#000000;stroke-width:1px;stroke-linecap:butt;stroke-linejoin:miter;stroke-opacity:1" />
    </g>
  </g>
</svg>
