<svg xmlns="http://www.w3.org/2000/svg" viewBox="0 0 40 20" width="800" height="400">
<circle cx="20" cy="20" r="19" fill="none" stroke="#dd0000" stroke-width="1"/>
<circle cx="20" cy="20" r="18" fill="none" stroke="#fe6230" stroke-width="1"/>
<circle cx="20" cy="20" r="17" fill="none" stroke="#fef600" stroke-width="1"/>
<circle cx="20" cy="20" r="16" fill="none" stroke="#00bc00" stroke-width="1"/>
<circle cx="20" cy="20" r="15" fill="none" stroke="#009bfe" stroke-width="1"/>
<circle cx="20" cy="20" r="14" fill="none" stroke="#000083" stroke-width="1"/>
<circle cx="20" cy="20" r="13" fill="#000" stroke="#30009b" stroke-width="1"/>
<!--
<circle cx="20" cy="20" r="19" fill="#dd0000" stroke="#dd0000" stroke-width="1"/>
<circle cx="20" cy="20" r="18" fill="#fe6230" stroke="#fe6230" stroke-width="1"/>
<circle cx="20" cy="20" r="17" fill="#fef600" stroke="#fef600" stroke-width="1"/>
<circle cx="20" cy="20" r="16" fill="#00bc00" stroke="#00bc00" stroke-width="1"/>
<circle cx="20" cy="20" r="15" fill="#009bf" stroke="#009bfe" stroke-width="1"/>
<circle cx="20" cy="20" r="14" fill="#000083" stroke="#000083" stroke-width="1"/>
<circle cx="20" cy="20" r="13" fill="#30009b" stroke="#30009b" stroke-width="1"/>

<circle cx="20" cy="20" r="12" fill="#dd0000" stroke="#dd0000" stroke-width="1"/>
<circle cx="20" cy="20" r="11" fill="#fe6230" stroke="#fe6230" stroke-width="1"/>
<circle cx="20" cy="20" r="10" fill="#fef600" stroke="#fef600" stroke-width="1"/>
<circle cx="20" cy="20" r="9" fill="#00bc00" stroke="#00bc00" stroke-width="1"/>
<circle cx="20" cy="20" r="8" fill="#009bf" stroke="#009bfe" stroke-width="1"/>
<circle cx="20" cy="20" r="7" fill="#000083" stroke="#000083" stroke-width="1"/>
<circle cx="20" cy="20" r="6" fill="#30009b" stroke="#30009b" stroke-width="1"/>

<circle cx="20" cy="20" r="5" fill="#dd0000" stroke="#dd0000" stroke-width="1"/>
<circle cx="20" cy="20" r="4" fill="#fe6230" stroke="#fe6230" stroke-width="1"/>
<circle cx="20" cy="20" r="3" fill="#fef600" stroke="#fef600" stroke-width="1"/>
<circle cx="20" cy="20" r="2" fill="#00bc00" stroke="#00bc00" stroke-width="1"/>
<circle cx="20" cy="20" r="1" fill="#009bf" stroke="#009bfe" stroke-width="1"/>
-->

</svg>
